# This file uses centimeters as units for non-parametric coordinates.

mtllib bolt.mtl
g default
v 0.828059 0.000000 -1.478087
v -0.910715 0.000000 -1.478087
v -1.719827 0.000000 -0.074208
v -0.850442 0.000000 1.341574
v 0.767786 0.000000 1.341574
v 1.637172 0.000000 -0.074208
v 0.771215 0.724908 -1.481572
v -0.853870 0.724908 -1.481572
v -1.666412 0.724908 -0.074208
v -0.853870 0.724908 1.333155
v 0.771215 0.724908 1.333156
v 1.583756 0.724908 -0.074208
v 1.471215 0.724908 -2.694007
v -1.553870 0.724908 -2.694008
v -3.066412 0.724908 -0.074209
v -1.553870 0.724908 2.545591
v 1.471214 0.724908 2.545591
v 2.983756 0.724908 -0.074208
v 1.504781 0.000000 -2.682424
v -1.572366 0.000000 -2.682425
v -3.073270 0.000000 -0.074209
v -1.542230 0.000000 2.549076
v 1.414370 0.000000 2.564144
v 2.960477 0.000000 -0.059140
v 1.471215 -0.724908 -2.694007
v -1.553869 -0.724908 -2.694008
v -3.066412 -0.724908 -0.074209
v -1.553870 -0.724908 2.545591
v 1.471214 -0.724908 2.545591
v 2.983756 -0.724908 -0.074208
v 0.771215 -0.724908 -1.481571
v -0.853869 -0.724908 -1.481572
v -1.666411 -0.724908 -0.074208
v -0.853870 -0.724908 1.333155
v 0.771214 -0.724908 1.333155
v 1.583756 -0.724908 -0.074208
vt 0.225857 0.818240
vt 0.410207 0.819939
vt 0.229875 0.896205
vt 0.404465 0.897782
vt 0.052395 0.816014
vt 0.054584 0.895291
vt 0.586098 0.616007
vt 0.582829 0.696362
vt 0.404563 0.615810
vt 0.405098 0.695260
vt 0.228401 0.615893
vt 0.227684 0.695407
vt 0.046571 0.615685
vt 0.049685 0.696163
vt 0.583786 0.821539
vt 0.579827 0.900800
vt 0.295448 0.281478
vt 0.295507 0.197275
vt 0.358245 0.317792
vt 0.358354 0.161048
vt 0.222496 0.323529
vt 0.222446 0.396070
vt 0.149603 0.281377
vt 0.086756 0.317603
vt 0.149662 0.197174
vt 0.086865 0.160859
vt 0.222614 0.155123
vt 0.222664 0.082582
vt 0.717983 0.598037
vt 0.719496 0.454479
vt 0.755787 0.598014
vt 0.758854 0.454768
vt 0.714514 0.742117
vt 0.752718 0.741676
vt 0.712463 0.886680
vt 0.749566 0.886784
vt 0.927544 0.747640
vt 0.924851 0.898569
vt 0.890672 0.749360
vt 0.887504 0.897032
vt 0.931197 0.596089
vt 0.893973 0.596097
vt 0.934192 0.447520
vt 0.897166 0.447521
vt 0.798188 0.456171
vt 0.793519 0.599660
vt 0.790772 0.743758
vt 0.786642 0.888274
vt 0.850125 0.896962
vt 0.853926 0.746059
vt 0.856782 0.594489
vt 0.860175 0.445929
vt 0.719245 0.165237
vt 0.719132 0.329210
vt 0.653499 0.203135
vt 0.653439 0.291222
vt 0.577296 0.083153
vt 0.577244 0.159039
vt 0.435235 0.165042
vt 0.500928 0.203030
vt 0.435122 0.329015
vt 0.500867 0.291117
vt 0.577070 0.411100
vt 0.577123 0.335214
vt 0.231721 0.740460
vt 0.406049 0.741999
vt 0.056639 0.736850
vt 0.405296 0.536363
vt 0.582991 0.535650
vt 0.227902 0.536380
vt 0.049855 0.535217
vt 0.581288 0.742238
vn 0.000000 0.004808 0.999988
vn 0.000000 0.004808 0.999988
vn 0.000000 0.004808 0.999988
vn 0.000000 0.004808 0.999988
vn 0.000000 0.004808 0.999988
vn 0.000000 0.004808 0.999988
vn 0.864644 -0.063711 0.498329
vn 0.864365 -0.064693 0.498686
vn 0.864451 -0.064389 0.498576
vn 0.864451 -0.064389 0.498576
vn 0.864365 -0.064693 0.498686
vn 0.864173 -0.065367 0.498931
vn 0.850484 -0.062668 -0.522254
vn 0.857076 -0.038619 -0.513740
vn 0.860050 -0.026982 -0.509496
vn 0.860050 -0.026982 -0.509496
vn 0.857076 -0.038619 -0.513740
vn 0.866024 -0.001711 -0.499999
vn 0.000000 -0.011612 -0.999933
vn 0.000000 -0.011613 -0.999933
vn 0.000000 -0.011613 -0.999933
vn 0.000000 -0.011613 -0.999933
vn 0.000000 -0.011613 -0.999933
vn 0.000000 -0.011613 -0.999933
vn -0.850484 -0.062669 -0.522255
vn -0.860050 -0.026982 -0.509496
vn -0.857076 -0.038619 -0.513740
vn -0.857076 -0.038619 -0.513740
vn -0.860050 -0.026982 -0.509496
vn -0.866024 -0.001711 -0.499999
vn -0.864644 -0.063712 0.498329
vn -0.864451 -0.064389 0.498576
vn -0.864365 -0.064693 0.498686
vn -0.864365 -0.064693 0.498686
vn -0.864451 -0.064389 0.498576
vn -0.864173 -0.065366 0.498931
vn 0.000000 1.000000 0.000000
vn 0.000000 1.000000 0.000000
vn 0.000000 1.000000 0.000000
vn 0.000000 1.000000 0.000000
vn 0.000000 1.000000 0.000000
vn 0.000000 1.000000 0.000000
vn -0.000000 1.000000 -0.000000
vn -0.000000 1.000000 -0.000000
vn -0.000000 1.000000 -0.000000
vn -0.000000 1.000000 -0.000000
vn -0.000000 1.000000 -0.000000
vn -0.000000 1.000000 -0.000000
vn 0.000000 1.000000 0.000000
vn 0.000000 1.000000 0.000000
vn 0.000000 1.000000 0.000000
vn 0.000000 1.000000 0.000000
vn 0.000000 1.000000 0.000000
vn 0.000000 1.000000 0.000000
vn 0.000000 1.000000 0.000000
vn -0.000000 1.000000 -0.000000
vn 0.000000 1.000000 0.000000
vn 0.000000 1.000000 0.000000
vn -0.000000 1.000000 -0.000000
vn -0.000000 1.000000 -0.000000
vn 0.000000 1.000000 0.000000
vn 0.000000 1.000000 0.000000
vn 0.000000 1.000000 0.000000
vn 0.000000 1.000000 0.000000
vn 0.000000 1.000000 0.000000
vn 0.000000 1.000000 0.000000
vn 0.000000 1.000000 0.000000
vn 0.000000 1.000000 0.000000
vn 0.000000 1.000000 0.000000
vn 0.000000 1.000000 0.000000
vn 0.000000 1.000000 0.000000
vn 0.000000 1.000000 0.000000
vn 0.000000 -0.015977 -0.999872
vn 0.000000 -0.015977 -0.999872
vn 0.000000 -0.015977 -0.999872
vn 0.000000 -0.015977 -0.999872
vn 0.000000 -0.015977 -0.999872
vn 0.000000 -0.015977 -0.999872
vn -0.865939 0.014106 -0.499950
vn -0.866127 0.012685 -0.499663
vn -0.866523 0.009645 -0.499044
vn -0.866523 0.009645 -0.499044
vn -0.866127 0.012685 -0.499663
vn -0.866708 0.008200 -0.498749
vn -0.865996 0.008193 0.499983
vn -0.865447 0.003409 0.500988
vn -0.864216 -0.006720 0.503077
vn -0.864216 -0.006720 0.503077
vn -0.865447 0.003409 0.500988
vn -0.863609 -0.011444 0.504032
vn 0.000000 0.025585 0.999673
vn -0.003808 0.009998 0.999943
vn -0.001200 0.020673 0.999786
vn -0.001200 0.020673 0.999786
vn -0.003808 0.009998 0.999943
vn -0.005096 0.004725 0.999976
vn 0.865894 -0.017415 0.499924
vn 0.861684 -0.045684 0.505385
vn 0.864632 -0.026422 0.501710
vn 0.864632 -0.026422 0.501710
vn 0.861684 -0.045684 0.505385
vn 0.860224 -0.054480 0.506998
vn 0.865579 0.032093 -0.499742
vn 0.872170 -0.020876 -0.488758
vn 0.867954 0.015257 -0.496410
vn 0.867954 0.015257 -0.496410
vn 0.872170 -0.020876 -0.488758
vn 0.873759 -0.038138 -0.484861
vn 0.000000 0.015977 -0.999872
vn 0.000000 0.015977 -0.999872
vn 0.000000 0.015977 -0.999872
vn 0.000000 0.015977 -0.999872
vn 0.000000 0.015977 -0.999872
vn 0.000000 0.015977 -0.999872
vn -0.866708 -0.008200 -0.498749
vn -0.866127 -0.012686 -0.499663
vn -0.866523 -0.009645 -0.499045
vn -0.866523 -0.009645 -0.499045
vn -0.866127 -0.012686 -0.499663
vn -0.865939 -0.014108 -0.499950
vn -0.863609 0.011444 0.504032
vn -0.865447 -0.003409 0.500988
vn -0.864216 0.006720 0.503077
vn -0.864216 0.006720 0.503077
vn -0.865447 -0.003409 0.500988
vn -0.865996 -0.008193 0.499983
vn -0.005096 -0.004726 0.999976
vn -0.003808 -0.009999 0.999943
vn -0.001200 -0.020673 0.999786
vn -0.001200 -0.020673 0.999786
vn -0.003808 -0.009999 0.999943
vn 0.000000 -0.025586 0.999673
vn 0.860224 0.054480 0.506998
vn 0.861684 0.045684 0.505385
vn 0.864632 0.026421 0.501710
vn 0.864632 0.026421 0.501710
vn 0.861684 0.045684 0.505385
vn 0.865894 0.017415 0.499924
vn 0.873759 0.038137 -0.484861
vn 0.872170 0.020875 -0.488758
vn 0.867954 -0.015258 -0.496410
vn 0.867954 -0.015258 -0.496410
vn 0.872170 0.020875 -0.488758
vn 0.865579 -0.032093 -0.499742
vn 0.000000 -1.000000 0.000000
vn 0.000000 -1.000000 0.000000
vn 0.000000 -1.000000 0.000000
vn 0.000000 -1.000000 0.000000
vn 0.000000 -1.000000 0.000000
vn 0.000000 -1.000000 0.000000
vn 0.000000 -1.000000 0.000000
vn 0.000000 -1.000000 0.000000
vn 0.000000 -1.000000 0.000000
vn 0.000000 -1.000000 0.000000
vn 0.000000 -1.000000 0.000000
vn 0.000000 -1.000000 0.000000
vn 0.000000 -1.000000 0.000000
vn 0.000000 -1.000000 0.000000
vn 0.000000 -1.000000 0.000000
vn 0.000000 -1.000000 0.000000
vn 0.000000 -1.000000 0.000000
vn 0.000000 -1.000000 0.000000
vn 0.000000 -1.000000 0.000000
vn 0.000000 -1.000000 0.000000
vn 0.000000 -1.000000 0.000000
vn 0.000000 -1.000000 0.000000
vn 0.000000 -1.000000 0.000000
vn 0.000000 -1.000000 0.000000
vn 0.000000 -1.000000 0.000000
vn 0.000000 -1.000000 0.000000
vn 0.000000 -1.000000 0.000000
vn 0.000000 -1.000000 0.000000
vn 0.000000 -1.000000 0.000000
vn 0.000000 -1.000000 0.000000
vn 0.000000 -1.000000 0.000000
vn 0.000000 -1.000000 0.000000
vn 0.000000 -1.000000 0.000000
vn 0.000000 -1.000000 0.000000
vn 0.000000 -1.000000 0.000000
vn 0.000000 -1.000000 0.000000
vn 0.000000 -0.004807 0.999988
vn 0.000000 -0.004807 0.999988
vn 0.000000 -0.004807 0.999988
vn 0.000000 -0.004807 0.999988
vn 0.000000 -0.004807 0.999988
vn 0.000000 -0.004807 0.999988
vn 0.864173 0.065368 0.498931
vn 0.864365 0.064695 0.498686
vn 0.864451 0.064390 0.498576
vn 0.864451 0.064390 0.498576
vn 0.864365 0.064695 0.498686
vn 0.864644 0.063713 0.498329
vn 0.866024 0.001711 -0.499999
vn 0.857076 0.038619 -0.513740
vn 0.860050 0.026983 -0.509496
vn 0.860050 0.026983 -0.509496
vn 0.857076 0.038619 -0.513740
vn 0.850484 0.062669 -0.522254
vn 0.000000 0.011613 -0.999933
vn 0.000000 0.011613 -0.999933
vn 0.000000 0.011613 -0.999933
vn 0.000000 0.011613 -0.999933
vn 0.000000 0.011613 -0.999933
vn 0.000000 0.011613 -0.999933
vn -0.866024 0.001711 -0.499999
vn -0.860050 0.026983 -0.509496
vn -0.857076 0.038619 -0.513740
vn -0.857076 0.038619 -0.513740
vn -0.860050 0.026983 -0.509496
vn -0.850484 0.062669 -0.522255
vn -0.864173 0.065367 0.498931
vn -0.864451 0.064390 0.498576
vn -0.864365 0.064694 0.498686
vn -0.864365 0.064694 0.498686
vn -0.864451 0.064390 0.498576
vn -0.864644 0.063713 0.498329
s off
g pTorus1
usemtl lambert3SG
f 2/1/1 1/2/2 8/3/3
f 8/3/4 1/2/5 7/4/6
f 3/5/7 2/1/8 9/6/9
f 9/6/10 2/1/11 8/3/12
f 3/7/13 9/8/14 4/9/15
f 4/9/16 9/8/17 10/10/18
f 5/11/19 4/9/20 11/12/21
f 11/12/22 4/9/23 10/10/24
f 6/13/25 5/11/26 12/14/27
f 12/14/28 5/11/29 11/12/30
f 6/15/31 12/16/32 1/2/33
f 1/2/34 12/16/35 7/4/36
f 8/17/37 7/18/38 14/19/39
f 14/19/40 7/18/41 13/20/42
f 9/21/43 8/17/44 15/22/45
f 15/22/46 8/17/47 14/19/48
f 10/23/49 9/21/50 16/24/51
f 16/24/52 9/21/53 15/22/54
f 11/25/55 10/23/56 17/26/57
f 17/26/58 10/23/59 16/24/60
f 12/27/61 11/25/62 18/28/63
f 18/28/64 11/25/65 17/26/66
f 7/18/67 12/27/68 13/20/69
f 13/20/70 12/27/71 18/28/72
f 14/29/73 13/30/74 20/31/75
f 20/31/76 13/30/77 19/32/78
f 14/29/79 20/31/80 15/33/81
f 15/33/82 20/31/83 21/34/84
f 15/33/85 21/34/86 16/35/87
f 16/35/88 21/34/89 22/36/90
f 17/37/91 16/38/92 23/39/93
f 23/39/94 16/38/95 22/40/96
f 18/41/97 17/37/98 24/42/99
f 24/42/100 17/37/101 23/39/102
f 13/43/103 18/41/104 19/44/105
f 19/44/106 18/41/107 24/42/108
f 19/32/109 25/45/110 20/31/111
f 20/31/112 25/45/113 26/46/114
f 21/34/115 20/31/116 27/47/117
f 27/47/118 20/31/119 26/46/120
f 22/36/121 21/34/122 28/48/123
f 28/48/124 21/34/125 27/47/126
f 22/40/127 28/49/128 23/39/129
f 23/39/130 28/49/131 29/50/132
f 23/39/133 29/50/134 24/42/135
f 24/42/136 29/50/137 30/51/138
f 24/42/139 30/51/140 19/44/141
f 19/44/142 30/51/143 25/52/144
f 26/53/145 25/54/146 32/55/147
f 32/55/148 25/54/149 31/56/150
f 27/57/151 26/53/152 33/58/153
f 33/58/154 26/53/155 32/55/156
f 28/59/157 27/57/158 34/60/159
f 34/60/160 27/57/161 33/58/162
f 29/61/163 28/59/164 35/62/165
f 35/62/166 28/59/167 34/60/168
f 30/63/169 29/61/170 36/64/171
f 36/64/172 29/61/173 35/62/174
f 25/54/175 30/63/176 31/56/177
f 31/56/178 30/63/179 36/64/180
f 32/65/181 31/66/182 2/1/183
f 2/1/184 31/66/185 1/2/186
f 32/65/187 2/1/188 33/67/189
f 33/67/190 2/1/191 3/5/192
f 34/68/193 33/69/194 4/9/195
f 4/9/196 33/69/197 3/7/198
f 35/70/199 34/68/200 5/11/201
f 5/11/202 34/68/203 4/9/204
f 35/70/205 5/11/206 36/71/207
f 36/71/208 5/11/209 6/13/210
f 31/66/211 36/72/212 1/2/213
f 1/2/214 36/72/215 6/15/216
