# This file uses centimeters as units for non-parametric coordinates.

mtllib Obstacle.mtl
g default
v -0.293375 -0.293375 0.293375
v 0.293375 -0.293375 0.293375
v -0.293375 0.293375 0.293375
v 0.293375 0.293375 0.293375
v -0.293375 0.293375 -0.293375
v 0.293375 0.293375 -0.293375
v -0.293375 -0.293375 -0.293375
v 0.293375 -0.293375 -0.293375
v -0.000000 1.027537 -0.000000
v 0.000000 -0.000000 1.027537
v 1.027537 -0.000000 0.000000
v 0.000000 0.000000 -1.027537
v -1.027537 0.000000 0.000000
v -0.000000 -1.027537 0.000000
vt 0.500248 0.000000
vt 0.699901 0.386877
vt 0.414389 0.426119
vt 0.699901 0.672511
vt 0.699760 0.672389
vt 1.000000 0.431277
vt 0.414248 0.711631
vt 0.585753 0.288369
vt 0.585611 0.573881
vt 0.300240 0.327611
vt 0.000000 0.568723
vt 0.499753 1.000000
vt 0.300099 0.613123
vt 0.300099 0.327489
vn 0.000000 0.928603 0.371074
vn 0.000000 0.928603 0.371074
vn 0.000000 0.928603 0.371074
vn 0.000000 0.371074 0.928603
vn 0.000000 0.371074 0.928603
vn 0.000000 0.371074 0.928603
vn 0.928603 0.371074 0.000000
vn 0.928603 0.371074 0.000000
vn 0.928603 0.371074 0.000000
vn 0.371074 0.928603 0.000000
vn 0.371074 0.928603 0.000000
vn 0.371074 0.928603 0.000000
vn -0.928603 0.371074 0.000000
vn -0.928604 0.371074 0.000000
vn -0.928604 0.371074 0.000000
vn 0.371074 0.000000 0.928603
vn 0.371074 0.000000 0.928603
vn 0.371074 0.000000 0.928604
vn 0.928603 0.000000 0.371074
vn 0.928603 0.000000 0.371074
vn 0.928603 0.000000 0.371074
vn 0.371074 0.000000 -0.928603
vn 0.371074 0.000000 -0.928603
vn 0.371074 0.000000 -0.928603
vn -0.928603 0.000000 0.371074
vn -0.928603 0.000000 0.371074
vn -0.928603 0.000000 0.371074
vn -0.371074 0.928603 0.000000
vn -0.371074 0.928603 0.000000
vn -0.371074 0.928603 0.000000
vn -0.371074 0.000000 0.928603
vn -0.371074 0.000000 0.928603
vn -0.371074 0.000000 0.928603
vn -0.928603 0.000000 -0.371074
vn -0.928603 0.000000 -0.371074
vn -0.928603 0.000000 -0.371074
vn 0.928603 -0.371074 0.000000
vn 0.928603 -0.371074 0.000000
vn 0.928603 -0.371074 0.000000
vn 0.371074 -0.928603 0.000000
vn 0.371074 -0.928603 0.000000
vn 0.371074 -0.928603 0.000000
vn 0.000000 0.371074 -0.928604
vn 0.000000 0.371074 -0.928604
vn 0.000000 0.371074 -0.928603
vn 0.000000 -0.928603 -0.371074
vn 0.000000 -0.928603 -0.371074
vn 0.000000 -0.928603 -0.371074
vn 0.000000 -0.928603 0.371074
vn 0.000000 -0.928603 0.371074
vn 0.000000 -0.928603 0.371074
vn 0.000000 0.928604 -0.371074
vn 0.000000 0.928603 -0.371074
vn 0.000000 0.928604 -0.371074
vn 0.928604 0.000000 -0.371074
vn 0.928604 0.000000 -0.371074
vn 0.928603 0.000000 -0.371074
vn -0.371074 0.000000 -0.928603
vn -0.371074 0.000000 -0.928603
vn -0.371074 0.000000 -0.928603
vn -0.371074 -0.928603 0.000000
vn -0.371074 -0.928603 0.000000
vn -0.371074 -0.928603 0.000000
vn 0.000000 -0.371074 -0.928603
vn 0.000000 -0.371074 -0.928603
vn 0.000000 -0.371074 -0.928603
vn 0.000000 -0.371074 0.928603
vn 0.000000 -0.371074 0.928603
vn 0.000000 -0.371074 0.928603
vn -0.928603 -0.371074 0.000000
vn -0.928603 -0.371074 0.000000
vn -0.928604 -0.371074 0.000000
s off
g pCube1
usemtl initialShadingGroup
f 10/1/1 4/2/2 3/3/3
f 9/4/4 3/3/5 4/2/6
f 6/5/7 9/4/8 4/2/9
f 4/2/10 11/6/11 6/5/12
f 3/3/13 9/4/14 5/7/15
f 11/6/16 4/2/17 2/8/18
f 4/2/19 10/1/20 2/8/21
f 11/6/22 8/9/23 6/5/24
f 1/10/25 10/1/26 3/3/27
f 5/7/28 13/11/29 3/3/30
f 13/11/31 1/10/32 3/3/33
f 5/7/34 12/12/35 7/13/36
f 2/8/37 14/14/38 8/9/39
f 8/9/40 11/6/41 2/8/42
f 9/4/43 6/5/44 5/7/45
f 12/12/46 8/9/47 7/13/48
f 10/1/49 1/10/50 2/8/51
f 12/12/52 5/7/53 6/5/54
f 8/9/55 12/12/56 6/5/57
f 13/11/58 5/7/59 7/13/60
f 1/10/61 13/11/62 7/13/63
f 14/14/64 7/13/65 8/9/66
f 14/14/67 2/8/68 1/10/69
f 7/13/70 14/14/71 1/10/72
